<svg width="17" height="18" viewBox="0 0 17 18" fill="none" xmlns="http://www.w3.org/2000/svg">
<path d="M4.70019 6.0001H12.5002C12.7552 6.0001 12.9689 5.91436 13.1414 5.74287C13.3139 5.57137 13.4002 5.35887 13.4002 5.10537C13.4002 4.85186 13.3139 4.6376 13.1414 4.4626C12.9689 4.2876 12.7552 4.2001 12.5002 4.2001H4.70019C4.4452 4.2001 4.23145 4.28584 4.05895 4.45732C3.88645 4.62882 3.8002 4.84132 3.8002 5.09482C3.8002 5.34834 3.88645 5.5626 4.05895 5.7376C4.23145 5.9126 4.4452 6.0001 4.70019 6.0001ZM4.70019 13.8001H10.1002C10.3552 13.8001 10.5689 13.7144 10.7414 13.5429C10.9139 13.3714 11.0002 13.1589 11.0002 12.9054C11.0002 12.6519 10.9139 12.4376 10.7414 12.2626C10.5689 12.0876 10.3552 12.0001 10.1002 12.0001H4.70019C4.4452 12.0001 4.23145 12.0858 4.05895 12.2573C3.88645 12.4288 3.8002 12.6413 3.8002 12.8948C3.8002 13.1483 3.88645 13.3626 4.05895 13.5376C4.23145 13.7126 4.4452 13.8001 4.70019 13.8001ZM4.70019 9.9001H12.5002C12.7552 9.9001 12.9689 9.81436 13.1414 9.64287C13.3139 9.47137 13.4002 9.25887 13.4002 9.00537C13.4002 8.75186 13.3139 8.5376 13.1414 8.3626C12.9689 8.1876 12.7552 8.1001 12.5002 8.1001H4.70019C4.4452 8.1001 4.23145 8.18584 4.05895 8.35732C3.88645 8.52882 3.8002 8.74132 3.8002 8.99482C3.8002 9.24834 3.88645 9.4626 4.05895 9.6376C4.23145 9.8126 4.4452 9.9001 4.70019 9.9001ZM2.0002 17.4001C1.5052 17.4001 1.08145 17.2238 0.728945 16.8713C0.376445 16.5188 0.200195 16.0951 0.200195 15.6001V2.4001C0.200195 1.9051 0.376445 1.48135 0.728945 1.12885C1.08145 0.776348 1.5052 0.600098 2.0002 0.600098H15.2002C15.6952 0.600098 16.1189 0.776348 16.4714 1.12885C16.8239 1.48135 17.0002 1.9051 17.0002 2.4001V15.6001C17.0002 16.0951 16.8239 16.5188 16.4714 16.8713C16.1189 17.2238 15.6952 17.4001 15.2002 17.4001H2.0002Z" fill="#9245F3"/>
</svg>
