<svg width="21" height="22" viewBox="0 0 21 22" fill="none" xmlns="http://www.w3.org/2000/svg">
<path d="M2.89981 22C2.31647 22 1.82064 21.7958 1.4123 21.3875C1.00397 20.9792 0.799805 20.4833 0.799805 19.9C0.799805 19.3167 1.00397 18.8208 1.4123 18.4125C1.82064 18.0042 2.31647 17.8 2.89981 17.8H18.6998C19.2831 17.8 19.779 18.0042 20.1873 18.4125C20.5956 18.8208 20.7998 19.3167 20.7998 19.9C20.7998 20.4833 20.5956 20.9792 20.1873 21.3875C19.779 21.7958 19.2831 22 18.6998 22H2.89981ZM4.24981 15.975C3.96647 15.975 3.72064 15.8708 3.51231 15.6625C3.30397 15.4542 3.19981 15.2083 3.19981 14.925V12.475C3.19981 12.3417 3.22481 12.2125 3.27481 12.0875C3.32481 11.9625 3.39981 11.85 3.4998 11.75L11.9248 3.325L15.8498 7.25L7.42481 15.675C7.32481 15.775 7.21231 15.85 7.08731 15.9C6.96231 15.95 6.83314 15.975 6.69981 15.975H4.24981ZM17.1248 5.975L13.1998 2.05L14.9498 0.3C15.1498 0.1 15.4081 0 15.7248 0C16.0415 0 16.2998 0.1 16.4998 0.3L18.9998 2.8C19.1831 2.98333 19.254 3.22083 19.2123 3.5125C19.1706 3.80417 19.0581 4.04167 18.8748 4.225L17.1248 5.975Z" fill="#9245F3"/>
</svg>
