<svg width="20" height="20" viewBox="0 0 20 20" fill="none" xmlns="http://www.w3.org/2000/svg">
<path d="M18.5752 7.575L12.8502 1.85L13.6502 1.025C14.0002 0.675 14.4252 0.5 14.9252 0.5C15.4252 0.5 15.8502 0.675 16.2002 1.025L19.4002 4.225C19.7502 4.575 19.9252 4.99583 19.9252 5.4875C19.9252 5.97917 19.7502 6.4 19.4002 6.75L18.5752 7.575ZM7.0252 19.125C6.79186 19.3583 6.4627 19.5083 6.0377 19.575C5.6127 19.6417 5.2252 19.5 4.8752 19.15L1.4752 15.75C1.1252 15.4 0.950195 14.975 0.950195 14.475C0.950195 13.975 1.1252 13.55 1.4752 13.2L2.2752 12.425L8.0002 18.15L7.0252 19.125ZM10.5002 18.55C10.3835 18.6667 10.2419 18.725 10.0752 18.725C9.90853 18.725 9.76686 18.6667 9.6502 18.55L1.9002 10.8C1.78353 10.6833 1.7252 10.5417 1.7252 10.375C1.7252 10.2083 1.78353 10.0667 1.9002 9.95L3.8002 8.025C3.91686 7.90833 4.05853 7.85 4.2252 7.85C4.39186 7.85 4.53353 7.90833 4.6502 8.025L6.4502 9.825L10.2502 6L8.4752 4.225C8.34186 4.10833 8.2752 3.97083 8.2752 3.8125C8.2752 3.65417 8.34186 3.50833 8.4752 3.375L10.3752 1.45C10.4919 1.33333 10.6335 1.275 10.8002 1.275C10.9669 1.275 11.1085 1.33333 11.2252 1.45L18.9752 9.2C19.1085 9.31667 19.1752 9.45833 19.1752 9.625C19.1752 9.79167 19.1085 9.94167 18.9752 10.075L17.0752 11.975C16.9585 12.0917 16.8169 12.15 16.6502 12.15C16.4835 12.15 16.3419 12.0917 16.2252 11.975L14.4002 10.15L10.5752 13.975L12.4252 15.8C12.5419 15.9167 12.596 16.0583 12.5877 16.225C12.5794 16.3917 12.5169 16.5333 12.4002 16.65L10.5002 18.55Z" fill="#9245F3"/>
</svg>
