<svg width="18" height="21" viewBox="0 0 18 21" fill="none" xmlns="http://www.w3.org/2000/svg">
<path d="M8.09961 7.02422V6.67422C7.39561 6.46884 6.81961 6.07782 6.37161 5.50117C5.92361 4.92452 5.69961 4.25703 5.69961 3.49869C5.69961 2.58238 6.02229 1.80339 6.66766 1.16172C7.31303 0.520052 8.09219 0.199219 9.00516 0.199219C9.91813 0.199219 10.6954 0.520894 11.3371 1.16424C11.9788 1.80759 12.2996 2.58433 12.2996 3.49444C12.2996 4.24763 12.0756 4.91424 11.6276 5.49427C11.1796 6.07432 10.6036 6.46764 9.89961 6.67422V7.02422L16.4996 10.8492C16.7846 11.0096 17.0059 11.2247 17.1634 11.4945C17.3209 11.7643 17.3996 12.0659 17.3996 12.3992V14.9992C17.3996 15.3326 17.3209 15.6341 17.1634 15.9039C17.0059 16.1737 16.7846 16.3888 16.4996 16.5492L9.89961 20.3742C9.61409 20.5409 9.31354 20.6242 8.99796 20.6242C8.68239 20.6242 8.38294 20.5409 8.09961 20.3742L1.49961 16.5492C1.21461 16.3888 0.993359 16.1737 0.835859 15.9039C0.678359 15.6341 0.599609 15.3326 0.599609 14.9992V12.3992C0.599609 12.0659 0.678359 11.7643 0.835859 11.4945C0.993359 11.2247 1.21461 11.0096 1.49961 10.8492L8.09961 7.02422ZM8.09961 12.7992V9.12422L3.27461 11.8992L8.99961 15.1992L14.7496 11.8992L9.89961 9.12422V12.7992H8.09961Z" fill="#9245F3"/>
</svg>
