<svg width="20" height="20" viewBox="0 0 20 20" fill="none" xmlns="http://www.w3.org/2000/svg">
<path d="M1.89961 19.6004C1.40461 19.6004 0.980859 19.4241 0.628359 19.0716C0.275859 18.7191 0.0996094 18.2954 0.0996094 17.8004V8.20039C0.0996094 7.70539 0.275859 7.28164 0.628359 6.92914C0.980859 6.57664 1.40461 6.40039 1.89961 6.40039H17.4996C17.9946 6.40039 18.4184 6.57664 18.7709 6.92914C19.1234 7.28164 19.2996 7.70539 19.2996 8.20039V17.8004C19.2996 18.2954 19.1234 18.7191 18.7709 19.0716C18.4184 19.4241 17.9946 19.6004 17.4996 19.6004H1.89961ZM8.59961 16.4504L13.3246 13.3754C13.4579 13.2861 13.5246 13.1596 13.5246 12.9959C13.5246 12.8322 13.4579 12.7087 13.3246 12.6254L8.59961 9.55039C8.44961 9.45039 8.29544 9.44224 8.13711 9.52594C7.97878 9.60962 7.89961 9.74277 7.89961 9.92539V16.0754C7.89961 16.258 7.97878 16.3912 8.13711 16.4748C8.29544 16.5585 8.44961 16.5504 8.59961 16.4504ZM3.40691 5.20039C3.15204 5.20039 2.93711 5.11465 2.76211 4.94317C2.58711 4.77167 2.49961 4.55917 2.49961 4.30567C2.49961 4.05215 2.58581 3.83789 2.75821 3.66289C2.93063 3.48789 3.14427 3.40039 3.39913 3.40039H15.9923C16.2472 3.40039 16.4621 3.48613 16.6371 3.65762C16.8121 3.82912 16.8996 4.04162 16.8996 4.29512C16.8996 4.54863 16.8134 4.76289 16.641 4.93789C16.4686 5.11289 16.255 5.20039 16.0001 5.20039H3.40691ZM5.79961 2.20039C5.54461 2.20039 5.33086 2.11465 5.15836 1.94317C4.98586 1.77167 4.89961 1.55917 4.89961 1.30567C4.89961 1.05215 4.98586 0.837891 5.15836 0.662891C5.33086 0.487891 5.54461 0.400391 5.79961 0.400391H13.5996C13.8546 0.400391 14.0684 0.486132 14.2409 0.657616C14.4134 0.829116 14.4996 1.04162 14.4996 1.29512C14.4996 1.54863 14.4134 1.76289 14.2409 1.93789C14.0684 2.11289 13.8546 2.20039 13.5996 2.20039H5.79961Z" fill="#9245F3"/>
</svg>
